<svg width="222" height="67" viewBox="0 0 222 67" fill="none" xmlns="http://www.w3.org/2000/svg">
<path d="M16.9176 33.7462C16.4318 29.715 13.3807 27.3968 9.34091 27.3968C4.73011 27.3968 1.21023 30.6525 1.21023 36.3627C1.21023 42.0559 4.67045 45.3286 9.34091 45.3286C13.8153 45.3286 16.517 42.3542 16.9176 39.1411L13.1847 39.1241C12.8352 40.9906 11.3693 42.0644 9.40057 42.0644C6.75 42.0644 4.9517 40.0957 4.9517 36.3627C4.9517 32.732 6.72443 30.661 9.42614 30.661C11.446 30.661 12.9034 31.8286 13.1847 33.7462H16.9176ZM30.3452 27.6355V38.6553C30.3452 40.6497 28.9474 42.09 26.7997 42.09C24.6605 42.09 23.2543 40.6497 23.2543 38.6553V27.6355H19.5639V38.9707C19.5639 42.7889 22.4446 45.3372 26.7997 45.3372C31.1378 45.3372 34.0355 42.7889 34.0355 38.9707V27.6355H30.3452ZM37.0717 45.09H40.7621V38.9025H43.4553L46.7621 45.09H50.8359L47.1286 38.3059C49.1143 37.4536 50.2138 35.7235 50.2138 33.3372C50.2138 29.8684 47.9212 27.6355 43.9581 27.6355H37.0717V45.09ZM40.7621 35.9366V30.6525H43.2507C45.3814 30.6525 46.4126 31.5985 46.4126 33.3372C46.4126 35.0673 45.3814 35.9366 43.2678 35.9366H40.7621ZM52.8217 45.09H56.5121V38.9025H59.2053L62.5121 45.09H66.5859L62.8786 38.3059C64.8643 37.4536 65.9638 35.7235 65.9638 33.3372C65.9638 29.8684 63.6712 27.6355 59.7081 27.6355H52.8217V45.09ZM56.5121 35.9366V30.6525H59.0007C61.1314 30.6525 62.1626 31.5985 62.1626 33.3372C62.1626 35.0673 61.1314 35.9366 59.0178 35.9366H56.5121ZM68.5717 45.09H80.3672V42.0474H72.2621V37.8798H79.728V34.8372H72.2621V30.6781H80.3331V27.6355H68.5717V45.09ZM97.8665 27.6355H94.1932V38.6127H94.0398L86.5057 27.6355H83.267V45.09H86.9574V34.1042H87.0852L94.679 45.09H97.8665V27.6355ZM100.251 30.6781H105.594V45.09H109.242V30.6781H114.586V27.6355H100.251V30.6781ZM131.574 33.7462C131.088 29.715 128.037 27.3968 123.997 27.3968C119.386 27.3968 115.866 30.6525 115.866 36.3627C115.866 42.0559 119.327 45.3286 123.997 45.3286C128.472 45.3286 131.173 42.3542 131.574 39.1411L127.841 39.1241C127.491 40.9906 126.026 42.0644 124.057 42.0644C121.406 42.0644 119.608 40.0957 119.608 36.3627C119.608 32.732 121.381 30.661 124.082 30.661C126.102 30.661 127.56 31.8286 127.841 33.7462H131.574ZM134.22 45.09H145.393V42.0474H137.911V27.6355H134.22V45.09ZM151.528 27.6355H147.837V45.09H151.528V27.6355ZM154.564 27.6355V45.09H158.143V33.6866H158.288L162.805 45.0048H165.243L169.76 33.7292H169.905V45.09H173.484V27.6355H168.933L164.126 39.3627H163.922L159.115 27.6355H154.564ZM179.533 45.09L180.829 41.1099H187.127L188.423 45.09H192.377L186.36 27.6355H181.604L175.579 45.09H179.533ZM181.766 38.2292L183.914 31.6241H184.05L186.198 38.2292H181.766ZM191.657 30.6781H197.001V45.09H200.648V30.6781H205.992V27.6355H191.657V30.6781ZM208.353 45.09H220.148V42.0474H212.043V37.8798H219.509V34.8372H212.043V30.6781H220.114V27.6355H208.353V45.09Z" fill="#3B82F6"/>
<path d="M137.625 25.2506C134.792 10.8456 122.167 0 107 0C94.9583 0 84.5 6.8675 79.2917 16.8756C66.75 18.2575 57 28.8938 57 41.875C57 48.5386 59.6339 54.9292 64.3223 59.6411C69.0107 64.3529 75.3696 67 82 67H136.167C138.903 67 141.612 66.4584 144.139 65.4062C146.667 64.354 148.964 62.8118 150.898 60.8675C152.833 58.9233 154.367 56.6152 155.414 54.0749C156.461 51.5347 157 48.812 157 46.0625C157 35.0075 148.458 26.0462 137.625 25.2506ZM111.167 54.4375H102.833V46.0625H111.167V54.4375ZM118.667 32.7463C117.417 34.3794 115.875 35.5938 113.958 36.6406C112.875 37.3106 112.167 37.9806 111.792 38.7763C111.417 39.5719 111.167 40.5769 111.167 41.875H102.833C102.833 39.5719 103.292 38.0225 104.083 36.9338C104.917 35.845 106.375 34.5469 108.542 33.1231C109.625 32.4531 110.5 31.6575 111.167 30.6525C111.792 29.6894 112.125 28.5169 112.125 27.2188C112.125 25.8787 111.75 24.8738 111 24.12C110.25 23.2825 109.083 22.9056 107.833 22.9056C106.708 22.9056 105.792 23.2406 104.917 23.8687C104.292 24.4969 103.875 25.46 103.875 26.7581H95.6667C95.4583 23.6175 96.5833 20.9375 98.9167 19.2206C101.167 17.5875 104.125 16.75 107.833 16.75C111.75 16.75 114.875 17.7131 117.125 19.5975C119.375 21.4819 120.5 24.0781 120.5 27.2188C120.5 29.3125 119.875 31.0294 118.667 32.7463Z" fill="#3B82F6" fill-opacity="0.2"/>
</svg>
