<svg width="25" height="25" viewBox="0 0 25 25" fill="none" xmlns="http://www.w3.org/2000/svg">
<path d="M14.0176 25.0004L11.9992 20.2577C13.9433 19.5395 15.7636 18.5736 17.4477 17.4467L14.0176 25.0004ZM4.74271 13.0012L0 10.9828L7.55367 7.55265C6.42681 9.23675 5.46093 11.0571 4.74271 13.0012ZM24.5185 0.481922C24.5185 0.481922 18.3889 -2.14453 11.38 4.86553C8.66815 7.57742 7.04596 10.5617 5.9934 13.1746C5.64668 14.1033 5.88196 15.1187 6.56302 15.8122L9.20062 18.4374C9.88168 19.1308 10.8971 19.3537 11.8258 19.007C14.4758 17.9916 17.423 16.3322 20.1349 13.6204C27.1437 6.61154 24.5185 0.481922 24.5185 0.481922ZM15.7636 9.23675C14.7978 8.27087 14.7978 6.69822 15.7636 5.73234C16.7295 4.76646 18.3022 4.76646 19.268 5.73234C20.2215 6.69822 20.2339 8.27087 19.268 9.23675C18.3022 10.2026 16.7295 10.2026 15.7636 9.23675ZM8.75483 17.9916L7.00881 16.2456L8.75483 17.9916ZM5.4857 24.7651L9.99313 20.2577C9.57211 20.1462 9.16347 19.9605 8.79198 19.7004L3.73969 24.7651H5.4857ZM0.235278 24.7651H1.98129L7.88801 18.8708L6.12962 17.1248L0.235278 23.0191V24.7651ZM0.235278 21.2607L5.29995 16.2084C5.03991 15.8369 4.85416 15.4407 4.74271 15.0073L0.235278 19.5147V21.2607Z" fill="#313131"/>
</svg>
