<svg width="74" height="84" viewBox="0 0 74 84" fill="none" xmlns="http://www.w3.org/2000/svg">
<path d="M37 21.1667C42.5254 21.1667 47.8244 23.3616 51.7314 27.2686C55.6384 31.1756 57.8334 36.4747 57.8334 42C57.8334 47.5253 55.6384 52.8244 51.7314 56.7314C47.8244 60.6384 42.5254 62.8333 37 62.8333C31.4747 62.8333 26.1756 60.6384 22.2686 56.7314C18.3616 52.8244 16.1667 47.5253 16.1667 42C16.1667 36.4747 18.3616 31.1756 22.2686 27.2686C26.1756 23.3616 31.4747 21.1667 37 21.1667ZM37 29.5C33.6848 29.5 30.5054 30.817 28.1612 33.1612C25.817 35.5054 24.5 38.6848 24.5 42C24.5 45.3152 25.817 48.4946 28.1612 50.8388C30.5054 53.183 33.6848 54.5 37 54.5C40.3152 54.5 43.4947 53.183 45.8389 50.8388C48.1831 48.4946 49.5 45.3152 49.5 42C49.5 38.6848 48.1831 35.5054 45.8389 33.1612C43.4947 30.817 40.3152 29.5 37 29.5ZM37 0.333328L46.9584 14.5833C43.875 13.4583 40.5 12.8333 37 12.8333C33.5 12.8333 30.125 13.4583 27.0417 14.5833L37 0.333328ZM0.916687 21.1667L18.25 19.7083C15.75 21.8333 13.5 24.4167 11.75 27.4167C9.91669 30.5 8.87502 33.6667 8.29169 36.9583L0.916687 21.1667ZM1.00002 62.8333L8.33335 47.125C8.91669 50.3333 10.0417 53.5833 11.7917 56.5833C13.5417 59.6667 15.7917 62.25 18.25 64.375L1.00002 62.8333ZM73.0417 21.1667L65.6667 36.9583C65.0834 33.6667 63.9584 30.4583 62.2084 27.4167C60.4584 24.4167 58.25 21.7917 55.75 19.6667L73.0417 21.1667ZM73 62.8333L55.75 64.3333C58.2084 62.2083 60.4167 59.5833 62.1667 56.5833C63.9167 53.5417 65.0417 50.3333 65.625 47.0417L73 62.8333ZM37 83.6667L26.9584 69.3333C30.0417 70.4583 33.4167 71.1667 37 71.1667C40.4167 71.1667 43.7917 70.4583 46.875 69.3333L37 83.6667Z" fill="#FACC15"/>
</svg>
