<svg width="17" height="18" viewBox="0 0 17 18" fill="none" xmlns="http://www.w3.org/2000/svg">
<path d="M16.3333 8.16667H9.66666V9.83334H16.3333V8.16667ZM7.16666 9.83334V3.16667C7.16666 1.78334 6.05 0.666672 4.66666 0.666672C3.28333 0.666672 2.16666 1.78334 2.16666 3.16667V9.83334C0.324995 11.2167 -0.0500047 13.825 1.33333 15.6667C2.71666 17.5083 5.325 17.8833 7.16666 16.5C9.00833 15.1167 9.38333 12.5083 8 10.6667C7.76666 10.35 7.48333 10.0667 7.16666 9.83334ZM4.66666 2.33334C5.125 2.33334 5.5 2.70834 5.5 3.16667V5.66667H3.83333V3.16667C3.83333 2.70834 4.20833 2.33334 4.66666 2.33334Z" fill="#3B82F6"/>
</svg>
