<svg width="30" height="21" viewBox="0 0 30 21" fill="none" xmlns="http://www.w3.org/2000/svg">
<path d="M24.1875 7.57519C23.3375 3.25369 19.55 0 15 0C11.3875 0 8.25 2.06025 6.6875 5.06269C2.925 5.47725 0 8.66813 0 12.5625C0 14.5616 0.790176 16.4788 2.1967 17.8923C3.60322 19.3059 5.51088 20.1 7.5 20.1H23.75C24.5708 20.1 25.3835 19.9375 26.1418 19.6219C26.9001 19.3062 27.5891 18.8435 28.1694 18.2603C28.7498 17.677 29.2102 16.9846 29.5242 16.2225C29.8383 15.4604 30 14.6436 30 13.8188C30 10.5023 27.4375 7.81387 24.1875 7.57519ZM16.25 16.3313H13.75V13.8188H16.25V16.3313ZM18.5 9.82387C18.125 10.3138 17.6625 10.6781 17.0875 10.9922C16.7625 11.1932 16.55 11.3942 16.4375 11.6329C16.325 11.8716 16.25 12.1731 16.25 12.5625H13.75C13.75 11.8716 13.8875 11.4067 14.125 11.0801C14.375 10.7535 14.8125 10.3641 15.4625 9.93694C15.7875 9.73594 16.05 9.49725 16.25 9.19575C16.4375 8.90681 16.5375 8.55506 16.5375 8.16563C16.5375 7.76363 16.425 7.46213 16.2 7.236C15.975 6.98475 15.625 6.87169 15.25 6.87169C14.9125 6.87169 14.6375 6.97219 14.375 7.16062C14.1875 7.34906 14.0625 7.638 14.0625 8.02744H11.6C11.5375 7.08525 11.875 6.28125 12.575 5.76619C13.25 5.27625 14.1375 5.025 15.25 5.025C16.425 5.025 17.3625 5.31394 18.0375 5.87925C18.7125 6.44456 19.05 7.22344 19.05 8.16563C19.05 8.79375 18.8625 9.30881 18.5 9.82387Z" fill="#3B82F6" fill-opacity="0.5"/>
</svg>
